Coordinates
version=1
nRows=60
nColumns=12
inDegrees=yes

Units are S.I. units (second, meters, Newtons, ...)
Angles are in degrees

endheader
time	SC_y	SC_z	SC_x	AC_y	AC_z	AC_x	GH_y	GH_z	GH_yy	EL_x	PS_y
       0.0              -30.56          15.21          49.82           50.3         -16.42          8.729          161.0          71.65         -172.8          100.5          40.48
   0.01857              -30.56          15.21          49.82           50.3         -16.42          8.726          161.0          71.64         -172.7          100.5          40.49
   0.03713              -30.56          15.21          49.82           50.3         -16.42          8.722          161.0          71.63         -172.7          100.5           40.5
    0.0557              -30.56          15.21          49.82           50.3         -16.42          8.718          161.0          71.62         -172.7          100.5          40.51
   0.07426              -30.56          15.21          49.83           50.3         -16.42          8.714          161.0          71.61         -172.7          100.5          40.52
   0.09283              -30.56          15.21          49.83           50.3         -16.42          8.709          161.0           71.6         -172.7          100.5          40.53
    0.1114              -30.57          15.21          49.83           50.3         -16.42          8.704          161.0          71.59         -172.7          100.4          40.54
      0.13              -30.57          15.21          49.83           50.3         -16.42          8.699          161.0          71.57         -172.7          100.4          40.55
    0.1485              -30.57          15.22          49.83           50.3         -16.42          8.694          160.9          71.56         -172.6          100.4          40.57
    0.1671              -30.57          15.22          49.83           50.3         -16.42          8.688          160.9          71.55         -172.6          100.4          40.58
    0.1857              -30.57          15.22          49.83           50.3         -16.42          8.681          160.9          71.53         -172.6          100.4           40.6
    0.2042              -30.57          15.22          49.84           50.3         -16.42          8.674          160.9          71.51         -172.6          100.4          40.62
    0.2228              -30.58          15.22          49.84          50.31         -16.42          8.667          160.9          71.49         -172.6          100.3          40.64
    0.2414              -30.58          15.23          49.84          50.31         -16.43          8.659          160.9          71.47         -172.5          100.3          40.66
    0.2599              -30.58          15.23          49.84          50.31         -16.43           8.65          160.8          71.45         -172.5          100.3          40.68
    0.2785              -30.58          15.23          49.84          50.31         -16.43          8.641          160.8          71.43         -172.5          100.3          40.71
    0.2971              -30.58          15.23          49.85          50.31         -16.43          8.631          160.8           71.4         -172.5          100.2          40.73
    0.3156              -30.59          15.24          49.85          50.31         -16.43           8.62          160.8          71.38         -172.4          100.2          40.76
    0.3342              -30.59          15.24          49.85          50.31         -16.43          8.608          160.7          71.35         -172.4          100.2          40.79
    0.3528              -30.59          15.24          49.86          50.31         -16.43          8.594          160.7          71.31         -172.3          100.1          40.83
    0.3713               -30.6          15.25          49.86          50.31         -16.44           8.58          160.6          71.28         -172.3          100.1          40.87
    0.3899               -30.6          15.25          49.86          50.32         -16.44          8.564          160.6          71.24         -172.3          100.1          40.91
    0.4085              -30.61          15.26          49.87          50.32         -16.44          8.546          160.6          71.19         -172.2          100.0          40.95
     0.427              -30.61          15.26          49.87          50.32         -16.44          8.526          160.5          71.14         -172.1          99.96           41.0
    0.4456              -30.62          15.27          49.88          50.32         -16.45          8.504          160.5          71.09         -172.1           99.9          41.06
    0.4641              -30.62          15.28          49.89          50.33         -16.45           8.48          160.4          71.03         -172.0          99.84          41.12
    0.4827              -30.63          15.28          49.89          50.33         -16.45          8.453          160.3          70.96         -171.9          99.76          41.19
    0.5013              -30.64          15.29           49.9          50.33         -16.46          8.422          160.2          70.88         -171.8          99.68          41.27
    0.5198              -30.65           15.3          49.91          50.34         -16.46          8.387          160.1           70.8         -171.7          99.59          41.36
    0.5384              -30.66          15.31          49.92          50.34         -16.47          8.348          160.0           70.7         -171.6          99.48          41.47
     0.557              -30.67          15.33          49.93          50.34         -16.47          8.303          159.9          70.59         -171.5          99.36          41.58
    0.5755              -30.68          15.34          49.95          50.35         -16.48          8.252          159.8          70.46         -171.3          99.22          41.72
    0.5941              -30.69          15.36          49.96          50.36         -16.49          8.192          159.6          70.31         -171.1          99.06          41.87
    0.6127              -30.71          15.38          49.98          50.36          -16.5          8.123          159.5          70.14         -170.9          98.88          42.05
    0.6312              -30.73           15.4           50.0          50.37         -16.51          8.042          159.2          69.94         -170.7          98.66          42.26
    0.6498              -30.76          15.43          50.03          50.38         -16.52          7.946          159.0           69.7         -170.4          98.41          42.51
    0.6684              -30.79          15.46          50.06           50.4         -16.53          7.833          158.7          69.42         -170.1           98.1          42.81
    0.6869              -30.82           15.5          50.09          50.41         -16.55          7.697          158.4          69.08         -169.6          97.74          43.16
    0.7055              -30.86          15.54          50.13          50.43         -16.57          7.532          157.9          68.67         -169.2           97.3          43.59
    0.7241              -30.91           15.6          50.19          50.45          -16.6          7.331          157.4          68.17         -168.5          96.76          44.11
    0.7426              -30.97          15.67          50.25          50.48         -16.63          7.083          156.8          67.55         -167.8          96.09          44.75
    0.7612              -31.05          15.75          50.33          50.51         -16.67          6.774          156.0          66.78         -166.9          95.26          45.56
    0.7798              -31.15          15.86          50.43          50.55         -16.73          6.384          154.9          65.81         -165.7          94.22          46.57
    0.7983              -31.27           16.0          50.56          50.61         -16.79          5.889          153.6          64.57         -164.2          92.89          47.86
    0.8169              -31.43          16.18          50.73          50.67         -16.87          5.255          152.0          62.99         -162.3          91.19          49.51
    0.8355              -31.64          16.41          50.94          50.76         -16.98          4.442          149.9          60.97         -159.8          89.01          51.62
     0.854               -31.9           16.7          51.21          50.87         -17.12          3.402          147.2          58.38         -156.7          86.22          54.32
    0.8726              -32.23          17.06          51.56          51.02         -17.29          2.096          143.8          55.12         -152.8          82.72          57.72
    0.8912              -32.63          17.51          51.97          51.19          -17.5         0.5034          139.6          51.15         -148.0          78.45          61.86
    0.9097               -33.1          18.03          52.46          51.39         -17.74         -1.342          134.8          46.55         -142.4           73.5          66.65
    0.9283               -33.6          18.59          52.98           51.6         -18.01         -3.341          129.6          41.57         -136.4          68.14          71.85
    0.9469               -34.1          19.15           53.5          51.82         -18.27         -5.339          124.4          36.59         -130.4          62.78          77.04
    0.9654              -34.57          19.67          53.98          52.02         -18.51         -7.185          119.6          31.99         -124.8          57.84          81.84
     0.984              -34.97          20.11           54.4          52.19         -18.72         -8.778          115.5          28.03         -120.0          53.57          85.98
     1.003               -35.3          20.48          54.74          52.33         -18.89         -10.08          112.1          24.77         -116.1          50.06          89.38
     1.021              -35.56          20.77          55.01          52.45         -19.03         -11.12          109.4          22.18         -113.0          47.28          92.08
      1.04              -35.76           21.0          55.23          52.53         -19.14         -11.94          107.3          20.15         -110.5           45.1          94.19
     1.058              -35.92          21.17          55.39           52.6         -19.22         -12.57          105.6          18.57         -108.6           43.4          95.84
     1.077              -36.05          21.31          55.52          52.66         -19.29         -13.07          104.3          17.34         -107.1          42.07          97.13
     1.095              -36.15          21.42          55.62           52.7         -19.34         -13.46          103.3          16.37         -105.9          41.02          98.14
